<?xml version="1.0" standalone="no"?>
<!DOCTYPE svg PUBLIC "-//W3C//DTD SVG 20010904//EN"
 "http://www.w3.org/TR/2001/REC-SVG-20010904/DTD/svg10.dtd">
<svg version="1.0" xmlns="http://www.w3.org/2000/svg"
 width="260.000000pt" height="260.000000pt" viewBox="0 0 260.000000 260.000000"
 preserveAspectRatio="xMidYMid meet">
<metadata>
Created by potrace 1.11, written by Peter Selinger 2001-2013
</metadata>
<g transform="translate(0.000000,260.000000) scale(0.100000,-0.100000)"
fill="#000000" stroke="none">
<path d="M190 2591 c-69 -21 -130 -73 -166 -141 -18 -34 -19 -82 -19 -1150 l0
-1115 22 -40 c25 -47 74 -95 123 -121 34 -18 82 -19 1150 -19 1068 0 1116 1
1150 19 49 26 98 74 123 121 l22 40 0 1115 0 1115 -22 40 c-25 47 -74 95 -123
121 -33 18 -83 19 -1135 21 -605 1 -1111 -2 -1125 -6z m799 -438 c6 -21 77
-288 158 -593 80 -305 149 -558 153 -563 3 -4 73 248 155 560 82 313 152 583
157 601 l9 32 274 0 275 0 0 -895 0 -895 -170 0 -170 0 -1 483 c-1 265 -4 572
-8 682 l-6 199 -169 -682 -169 -682 -177 0 -176 0 -171 688 -171 687 -1 -455
c-1 -250 -4 -560 -8 -687 l-6 -233 -169 0 -168 0 0 895 0 895 275 0 274 0 10
-37z"/>
</g>
</svg>
